<svg width="80" height="80" viewBox="0 0 80 80" fill="none" xmlns="http://www.w3.org/2000/svg">
<path d="M24 0.799805H56C68.813 0.799805 79.2002 11.187 79.2002 24V56C79.2002 68.813 68.813 79.2002 56 79.2002H24C11.187 79.2002 0.799805 68.813 0.799805 56V24C0.799805 11.187 11.187 0.799805 24 0.799805Z" stroke="#F1F1F1" stroke-width="1.6"/>
<g clip-path="url(#clip0_1001_34)">
<path d="M54.3587 46.3317L49.6176 33.2786L49.6144 33.27H49.5208L48.5445 35.9524L46.7671 40.8357L46.763 40.8318C46.147 40.2883 45.2779 39.9485 44.1834 39.8219L43.8495 39.7875L44.1807 39.745C45.9857 39.4207 47.199 38.2807 47.199 36.9073C47.199 35.0239 45.4276 33.7093 42.8901 33.7093H37.6106V33.8046H39.1447V43.5365L35.4189 33.2786L35.4157 33.27H35.3221L34.3458 35.9524L30.5802 46.2982L30.557 46.3008C30.4926 46.3088 30.429 46.3151 30.366 46.3198C30.2713 46.3273 30.1771 46.3317 30.0827 46.3317H26.2778L33.5103 33.8046L33.564 33.7105H24.7185V37.5857H24.8123C24.829 35.6981 25.9283 33.8046 28.357 33.8046H31.2871L24 46.4256H33.8171V42.7128H33.7232C33.7105 44.358 32.7778 45.9206 30.7498 46.2735L30.6853 46.2845L32.2298 42.0392H36.5565L38.1156 46.3317H36.5776V46.4256H42.6139V46.3317H41.0694V39.8567H42.8515C44.6651 39.8567 45.7053 40.667 45.7053 42.079V43.2276C45.7053 43.3541 45.7139 43.5391 45.7234 43.6939V43.6995L44.7655 46.3311H43.5142V46.425H46.1045V46.3311H44.8665L45.7389 43.9348C45.7406 43.9579 45.7415 43.9719 45.7415 43.9719L45.7656 44.1878L45.7888 44.3307C45.9343 45.2143 46.2723 45.8639 46.793 46.2613L46.8678 46.3157C47.2635 46.5907 47.755 46.73 48.3298 46.73C49.091 46.73 49.5986 46.5402 50.0177 46.0935L49.9628 46.0418C49.5767 46.3982 49.2526 46.5426 48.8466 46.5426C48.1548 46.5426 47.7928 45.7035 47.7928 44.876V43.2668C47.7964 42.8675 47.7339 42.4703 47.6077 42.0915L47.5905 42.0416V42.0398H50.7552L52.3143 46.3323H50.7763V46.4262H56V46.3323L54.3587 46.3317ZM32.2643 41.9453L34.3957 36.0896L36.5223 41.9453H32.2643ZM41.0703 39.7625V33.8046H42.4307C44.2478 33.8046 45.2072 34.8849 45.2072 36.9275C45.2072 39.0999 44.6565 39.7625 42.8515 39.7625H41.0703ZM47.5537 41.9453L47.5444 41.9222C47.4038 41.5796 47.1991 41.2671 46.9412 41.0014L46.8521 40.9123L46.8426 40.9034L48.5932 36.0896L50.7199 41.9453H47.5537Z" fill="black"/>
</g>
<defs>
<clipPath id="clip0_1001_34">
<rect width="32" height="13.46" fill="white" transform="translate(24 33.27)"/>
</clipPath>
</defs>
</svg>
